<svg width="45" height="45" viewBox="0 0 45 45" fill="none" xmlns="http://www.w3.org/2000/svg">
<path d="M44.5 22.5C44.5 34.6503 34.6503 44.5 22.5 44.5C10.3497 44.5 0.5 34.6503 0.5 22.5C0.5 10.3497 10.3497 0.5 22.5 0.5C34.6503 0.5 44.5 10.3497 44.5 22.5Z" stroke="#DCCA87"/>
<path d="M33 9.49841C33 5.91507 30.9813 3 28.4999 3C26.0186 3 24 5.91507 24 9.49841C24 12.8878 25.8064 15.6779 28.1018 15.97V20.6471H27.1552V31.8236V43H29.8445V20.647H28.898V15.9699C31.1935 15.6777 33 12.8878 33 9.49841ZM29.0484 21.5102V42.1367H27.9516V21.5102H29.0484ZM28.4999 15.1338C26.4578 15.1338 24.7964 12.6056 24.7964 9.49829C24.7964 6.39095 26.4578 3.86281 28.4999 3.86281C30.5422 3.86281 32.2037 6.39095 32.2037 9.49829C32.2037 12.6056 30.5422 15.1338 28.4999 15.1338Z" fill="#DCCA87"/>
<path d="M21.1258 10.9028C21.1258 12.7676 19.7309 14.3096 17.9372 14.5279V3H17.0628V14.5279C15.2691 14.3096 13.8745 12.7676 13.8745 10.9028V3H13V10.9028C13 13.254 14.7859 15.1924 17.0628 15.4146V20.1831H16.0234V43H18.9768V20.1831H17.9371V15.4146C20.214 15.1924 22 13.254 22 10.9028V3H21.1257V10.9028H21.1258ZM18.1023 21.0641V42.119H16.8978V21.0641H18.1023Z" fill="#DCCA87"/>
</svg>
