<svg width="22" height="40" viewBox="0 0 22 40" fill="none" xmlns="http://www.w3.org/2000/svg">
<g clip-path="url(#clip0_7175_2)">
<path d="M9 6.49841C9 2.91507 6.98129 0 4.49995 0C2.01861 0 0 2.91507 0 6.49841C0 9.8878 1.80637 12.6779 4.1018 12.97V17.6471H3.1552V28.8236V40H5.84446V17.647H4.89798V12.9699C7.19352 12.6777 9 9.8878 9 6.49841ZM5.04839 18.5102V39.1367H3.95161V18.5102H5.04839ZM4.49995 12.1338C2.45778 12.1338 0.796403 9.60563 0.796403 6.49829C0.796403 3.39095 2.45778 0.862811 4.49995 0.862811C6.54222 0.862811 8.2037 3.39095 8.2037 6.49829C8.2037 9.60563 6.54222 12.1338 4.49995 12.1338Z" fill="#DCCA87"/>
<path d="M21.1258 7.9028C21.1258 9.76764 19.7309 11.3096 17.9372 11.5279V0H17.0628V11.5279C15.2691 11.3096 13.8745 9.76764 13.8745 7.9028V0H13V7.9028C13 10.254 14.7859 12.1924 17.0628 12.4146V17.1831H16.0234V40H18.9768V17.1831H17.9371V12.4146C20.214 12.1924 22 10.254 22 7.9028V0H21.1257V7.9028H21.1258ZM18.1023 18.0641V39.119H16.8978V18.0641H18.1023Z" fill="#DCCA87"/>
</g>
<defs>
<clipPath id="clip0_7175_2">
<rect width="40" height="22" fill="white" transform="matrix(0 -1 1 0 0 40)"/>
</clipPath>
</defs>
</svg>
