<svg width="88" height="10" viewBox="0 0 88 10" fill="none" xmlns="http://www.w3.org/2000/svg">
<g clip-path="url(#clip0_509_79)">
<path d="M7.90259 1.37423C9.76743 1.37423 11.3094 2.76913 11.5277 4.56277L-0.000213623 4.56277L-0.000213623 5.43723L11.5277 5.43723C11.3094 7.23087 9.76743 8.62553 7.90259 8.62553H-0.000213623L-0.000213623 9.5H7.90259C10.2538 9.5 12.1922 7.71414 12.4144 5.43723H17.1829V6.47664L39.9998 6.47664V3.52324L17.1829 3.52324V4.56289H12.4144C12.1922 2.28598 10.2538 0.5 7.90259 0.5H-0.000213623L-0.000213623 1.37435H7.90259V1.37423ZM18.0639 4.39771L39.1188 4.39771V5.60217L18.0639 5.60217V4.39771Z" fill="#DCCA87"/>
<path d="M81.5014 9.5C85.0847 9.5 87.9998 7.48129 87.9998 4.99995C87.9998 2.51861 85.0847 0.5 81.5014 0.5C78.112 0.5 75.3219 2.30637 75.0298 4.6018H70.3527V3.6552L47.9998 3.6552V6.34446L70.3528 6.34446V5.39798H75.0299C75.3221 7.69352 78.112 9.5 81.5014 9.5ZM69.4896 5.54839L48.8631 5.54839V4.45161H69.4896V5.54839ZM75.866 4.99995C75.866 2.95778 78.3942 1.2964 81.5015 1.2964C84.6088 1.2964 87.137 2.95778 87.137 4.99995C87.137 7.04222 84.6088 8.7037 81.5015 8.7037C78.3942 8.7037 75.866 7.04222 75.866 4.99995Z" fill="#DCCA87"/>
</g>
<defs>
<clipPath id="clip0_509_79">
<rect width="88" height="9" fill="white" transform="translate(-0.000213623 0.5)"/>
</clipPath>
</defs>
</svg>
