<svg width="66" height="64" viewBox="0 0 66 64" fill="none" xmlns="http://www.w3.org/2000/svg">
<path d="M57.7797 20.5031C62.3055 15.9336 63.4377 9.642 60.3037 6.47778C57.1697 3.31357 50.9383 4.45675 46.4125 9.02623C42.1316 13.3484 40.8892 19.2098 43.4194 22.5094L37.512 28.4737L36.3165 27.2666L8.08421 55.7711L11.4808 59.2004L39.7132 30.6958L38.5178 29.4889L44.4251 23.5246C47.6934 26.0793 53.4988 24.8252 57.7797 20.5031ZM37.6176 30.7814L11.5657 57.0844L10.1804 55.6858L36.2323 29.3827L37.6176 30.7814ZM44.9784 21.9508C42.3991 19.3466 43.4938 14.0041 47.4185 10.0417C51.3431 6.07917 56.6346 4.97387 59.2139 7.57804C61.7934 10.1824 60.6987 15.525 56.7741 19.4875C52.8494 23.45 47.5578 24.5551 44.9784 21.9508Z" fill="white"/>
<path d="M20.0731 9.02178C15.5536 4.44602 9.3307 3.30141 6.20105 6.46997C3.07141 9.63852 4.2021 15.9386 8.72167 20.5144C12.9966 24.8424 18.794 26.0986 22.0576 23.5404L27.9567 29.5129L26.7628 30.7217L54.9559 59.2653L58.3478 55.8312L30.1545 27.2875L28.9608 28.4961L23.0616 22.5236C25.5885 19.2193 24.3481 13.3499 20.0731 9.02178ZM30.2392 29.4062L56.2549 55.7454L54.8715 57.1459L28.8558 30.8068L30.2392 29.4062ZM21.5051 21.9642C18.9293 24.572 13.6452 23.4652 9.726 19.4972C5.80679 15.5293 4.71357 10.1795 7.28929 7.57174C9.86516 4.96385 15.1494 6.07052 19.0686 10.0385C22.9878 14.0064 24.0809 19.3563 21.5051 21.9642Z" fill="white"/>
</svg>
